<svg xmlns="http://www.w3.org/2000/svg" viewBox="0 0 1200 560" width="1200" height="560" fill="none" xmlns:c2pa="http://c2pa.org/manifest"><metadata><c2pa:manifest>AAAWgmp1bWIAAAAeanVtZGMycGEAEQAQgAAAqgA4m3EDYzJwYQAAABZcanVtYgAAAEdqdW1kYzJtYQARABCAAACqADibcQN1cm46YzJwYTo4OGVjMWMxOS0zM2VhLTQ1MjctOWE5ZC0xN2I2MjA5MzlhMWMAAAADl2p1bWIAAAApanVtZGMyYXMAEQAQgAAAqgA4m3EDYzJwYS5hc3NlcnRpb25zAAAAALxqdW1iAAAARGp1bWRjYm9yABEAEIAAAKoAOJtxE2MycGEuaW5ncmVkaWVudC52MwAAAAAYYzJzaOtgJYqGJAskpVAvgkXpXD0AAABwY2JvcqNpZGM6Zm9ybWF0bWltYWdlL3N2Zyt4bWxqaW5zdGFuY2VJRHgseG1wOmlpZDozZjZiMjUxNC0xNjQ5LTRiMWYtODFjZC00NWY4OGQ0M2ZjYjVscmVsYXRpb25zaGlwaHBhcmVudE9mAAAB4mp1bWIAAABBanVtZGNib3IAEQAQgAAAqgA4m3ETYzJwYS5hY3Rpb25zLnYyAAAAABhjMnNoSGzQmtGBNx26c4eyQMa8nAAAAZljYm9yomdhY3Rpb25zgqJmYWN0aW9ua2MycGEub3BlbmVkanBhcmFtZXRlcnOha2luZ3JlZGllbnRzgaJjdXJseC1zZWxmI2p1bWJmPWMycGEuYXNzZXJ0aW9ucy9jMnBhLmluZ3JlZGllbnQudjNkaGFzaFggRQYLoZhjT406xjGSRjfEO4z7EjQxXQsfwnx28TP0lQSkZmFjdGlvbngdY29tLmFudGhyb3BpYy5jbGF1ZGUucHJvdmlkZWRqcGFyYW1ldGVyc6F4H2NvbS5hbnRocm9waWMub3JpZ2luLWNvbmZpZGVuY2VndW5rbm93bmtkZXNjcmlwdGlvbnhmQ2xhdWRlIHByb3ZpZGVkIHRoaXMgZmlsZSBhdCB0aGUgcmVxdWVzdCBvZiBhIHVzZXIgYW5kIG1heSBoYXZlIGNyZWF0ZWQgb3IgbW9kaWZpZWQgdGhlIGZpbGUgY29udGVudHMubXNvZnR3YXJlQWdlbnShZG5hbWVmQ2xhdWRlcmFsbEFjdGlvbnNJbmNsdWRlZPUAAADIanVtYgAAAEBqdW1kY2JvcgARABCAAACqADibcRNjMnBhLmhhc2guZGF0YQAAAAAYYzJzaC9h+fWKgUET3ssvDp8prfIAAACAY2JvcqVjYWxnZnNoYTI1NmNwYWRNAAAAAAAAAAAAAAAAAGRoYXNoWCB2DRtQiJrnCqBR4Wk+MJHPBB0t/n5ngr7vbYuZaUcxQmRuYW1lbmp1bWJmIG1hbmlmZXN0amV4Y2x1c2lvbnOBomVzdGFydBikZmxlbmd0aBkeBAAAAj5qdW1iAAAAJ2p1bWRjMmNsABEAEIAAAKoAOJtxA2MycGEuY2xhaW0udjIAAAACD2Nib3KlY2FsZ2ZzaGEyNTZpc2lnbmF0dXJleE1zZWxmI2p1bWJmPS9jMnBhL3VybjpjMnBhOjg4ZWMxYzE5LTMzZWEtNDUyNy05YTlkLTE3YjYyMDkzOWExYy9jMnBhLnNpZ25hdHVyZWppbnN0YW5jZUlEeCx4bXA6aWlkOmYwZTU5NWRkLWY1YzQtNDYyYy05M2E3LWFiZjZhYjY0ODNjYnJjcmVhdGVkX2Fzc2VydGlvbnODomN1cmx4LXNlbGYjanVtYmY9YzJwYS5hc3NlcnRpb25zL2MycGEuaW5ncmVkaWVudC52M2RoYXNoWCBFBguhmGNPjTrGMZJGN8Q7jPsSNDFdCx/CfHbxM/SVBKJjdXJseCpzZWxmI2p1bWJmPWMycGEuYXNzZXJ0aW9ucy9jMnBhLmFjdGlvbnMudjJkaGFzaFggzQcDNunSJHCMoM7qPaVlzpVAkgb4dlz3lioLJccxotSiY3VybHgpc2VsZiNqdW1iZj1jMnBhLmFzc2VydGlvbnMvYzJwYS5oYXNoLmRhdGFkaGFzaFggpmV1Y59xYsj3H0eWnvZbZ+WVFZDA99C3ffhphBUtcxd0Y2xhaW1fZ2VuZXJhdG9yX2luZm+jZG5hbWVvQW50aHJvcGljIEZpbGVzZ3ZlcnNpb25lMS4wLjBrc3BlY1ZlcnNpb25lMi40LjAAABA4anVtYgAAAChqdW1kYzJjcwARABCAAACqADibcQNjMnBhLnNpZ25hdHVyZQAAABAIY2JvctKEWQISogEmGCFZAgowggIGMIIBjaADAgECAhRA5aAK7sI50L64g/oGQgU9Z1UTADAKBggqhkjOPQQDAzBJMRcwFQYDVQQKEw5BbnRocm9waWMsIFBCQzEuMCwGA1UEAxMlQW50aHJvcGljIENvbnRlbnQgQ3JlZGVudGlhbHMgUm9vdCBDQTAeFw0yNjA4MDcxODQzNTZaFw0yODA4MDYxOTQzNTZaMEQxFzAVBgNVBAoTDkFudGhyb3BpYywgUEJDMSkwJwYDVQQDEyBBbnRocm9waWMgQ2xhdWRlIENvbnRlbnQgU2lnbmluZzBZMBMGByqGSM49AgEGCCqGSM49AwEHA0IABJh6CmvLUBgFFNU0vUKlOVtE6djd17L5SuwX0LemFisBM3dkd/3cyjxFA3Qo5S46fX0/ihY0VZ7mfb9KF703t5OjWDBWMA4GA1UdDwEB/wQEAwIHgDAVBgNVHSUEDjAMBgorBgEEAYPoXgIBMAwGA1UdEwEB/wQCMAAwHwYDVR0jBBgwFoAUzlHiBIFOZFsj+OPEz5o+nMHXXMIwCgYIKoZIzj0EAwMDZwAwZAIwMXMdFJ4BetLLVY7ORuE9noqbbAZOZn/aArXyTwFAZfKrPzxF2vPoJNf1+UCdg1XGAjBwX1zd9WGqYkqmL5SFqw1QySjr1zJfpJM9+1rdDwSPLMOPOjKuiXjoU/pUUeG9RwmhY3BhZFkNngAAAAAAAAAAAAAAAAAAAAAAAAAAAAAAAAAAAAAAAAAAAAAAAAAAAAAAAAAAAAAAAAAAAAAAAAAAAAAAAAAAAAAAAAAAAAAAAAAAAAAAAAAAAAAAAAAAAAAAAAAAAAAAAAAAAAAAAAAAAAAAAAAAAAAAAAAAAAAAAAAAAAAAAAAAAAAAAAAAAAAAAAAAAAAAAAAAAAAAAAAAAAAAAAAAAAAAAAAAAAAAAAAAAAAAAAAAAAAAAAAAAAAAAAAAAAAAAAAAAAAAAAAAAAAAAAAAAAAAAAAAAAAAAAAAAAAAAAAAAAAAAAAAAAAAAAAAAAAAAAAAAAAAAAAAAAAAAAAAAAAAAAAAAAAAAAAAAAAAAAAAAAAAAAAAAAAAAAAAAAAAAAAAAAAAAAAAAAAAAAAAAAAAAAAAAAAAAAAAAAAAAAAAAAAAAAAAAAAAAAAAAAAAAAAAAAAAAAAAAAAAAAAAAAAAAAAAAAAAAAAAAAAAAAAAAAAAAAAAAAAAAAAAAAAAAAAAAAAAAAAAAAAAAAAAAAAAAAAAAAAAAAAAAAAAAAAAAAAAAAAAAAAAAAAAAAAAAAAAAAAAAAAAAAAAAAAAAAAAAAAAAAAAAAAAAAAAAAAAAAAAAAAAAAAAAAAAAAAAAAAAAAAAAAAAAAAAAAAAAAAAAAAAAAAAAAAAAAAAAAAAAAAAAAAAAAAAAAAAAAAAAAAAAAAAAAAAAAAAAAAAAAAAAAAAAAAAAAAAAAAAAAAAAAAAAAAAAAAAAAAAAAAAAAAAAAAAAAAAAAAAAAAAAAAAAAAAAAAAAAAAAAAAAAAAAAAAAAAAAAAAAAAAAAAAAAAAAAAAAAAAAAAAAAAAAAAAAAAAAAAAAAAAAAAAAAAAAAAAAAAAAAAAAAAAAAAAAAAAAAAAAAAAAAAAAAAAAAAAAAAAAAAAAAAAAAAAAAAAAAAAAAAAAAAAAAAAAAAAAAAAAAAAAAAAAAAAAAAAAAAAAAAAAAAAAAAAAAAAAAAAAAAAAAAAAAAAAAAAAAAAAAAAAAAAAAAAAAAAAAAAAAAAAAAAAAAAAAAAAAAAAAAAAAAAAAAAAAAAAAAAAAAAAAAAAAAAAAAAAAAAAAAAAAAAAAAAAAAAAAAAAAAAAAAAAAAAAAAAAAAAAAAAAAAAAAAAAAAAAAAAAAAAAAAAAAAAAAAAAAAAAAAAAAAAAAAAAAAAAAAAAAAAAAAAAAAAAAAAAAAAAAAAAAAAAAAAAAAAAAAAAAAAAAAAAAAAAAAAAAAAAAAAAAAAAAAAAAAAAAAAAAAAAAAAAAAAAAAAAAAAAAAAAAAAAAAAAAAAAAAAAAAAAAAAAAAAAAAAAAAAAAAAAAAAAAAAAAAAAAAAAAAAAAAAAAAAAAAAAAAAAAAAAAAAAAAAAAAAAAAAAAAAAAAAAAAAAAAAAAAAAAAAAAAAAAAAAAAAAAAAAAAAAAAAAAAAAAAAAAAAAAAAAAAAAAAAAAAAAAAAAAAAAAAAAAAAAAAAAAAAAAAAAAAAAAAAAAAAAAAAAAAAAAAAAAAAAAAAAAAAAAAAAAAAAAAAAAAAAAAAAAAAAAAAAAAAAAAAAAAAAAAAAAAAAAAAAAAAAAAAAAAAAAAAAAAAAAAAAAAAAAAAAAAAAAAAAAAAAAAAAAAAAAAAAAAAAAAAAAAAAAAAAAAAAAAAAAAAAAAAAAAAAAAAAAAAAAAAAAAAAAAAAAAAAAAAAAAAAAAAAAAAAAAAAAAAAAAAAAAAAAAAAAAAAAAAAAAAAAAAAAAAAAAAAAAAAAAAAAAAAAAAAAAAAAAAAAAAAAAAAAAAAAAAAAAAAAAAAAAAAAAAAAAAAAAAAAAAAAAAAAAAAAAAAAAAAAAAAAAAAAAAAAAAAAAAAAAAAAAAAAAAAAAAAAAAAAAAAAAAAAAAAAAAAAAAAAAAAAAAAAAAAAAAAAAAAAAAAAAAAAAAAAAAAAAAAAAAAAAAAAAAAAAAAAAAAAAAAAAAAAAAAAAAAAAAAAAAAAAAAAAAAAAAAAAAAAAAAAAAAAAAAAAAAAAAAAAAAAAAAAAAAAAAAAAAAAAAAAAAAAAAAAAAAAAAAAAAAAAAAAAAAAAAAAAAAAAAAAAAAAAAAAAAAAAAAAAAAAAAAAAAAAAAAAAAAAAAAAAAAAAAAAAAAAAAAAAAAAAAAAAAAAAAAAAAAAAAAAAAAAAAAAAAAAAAAAAAAAAAAAAAAAAAAAAAAAAAAAAAAAAAAAAAAAAAAAAAAAAAAAAAAAAAAAAAAAAAAAAAAAAAAAAAAAAAAAAAAAAAAAAAAAAAAAAAAAAAAAAAAAAAAAAAAAAAAAAAAAAAAAAAAAAAAAAAAAAAAAAAAAAAAAAAAAAAAAAAAAAAAAAAAAAAAAAAAAAAAAAAAAAAAAAAAAAAAAAAAAAAAAAAAAAAAAAAAAAAAAAAAAAAAAAAAAAAAAAAAAAAAAAAAAAAAAAAAAAAAAAAAAAAAAAAAAAAAAAAAAAAAAAAAAAAAAAAAAAAAAAAAAAAAAAAAAAAAAAAAAAAAAAAAAAAAAAAAAAAAAAAAAAAAAAAAAAAAAAAAAAAAAAAAAAAAAAAAAAAAAAAAAAAAAAAAAAAAAAAAAAAAAAAAAAAAAAAAAAAAAAAAAAAAAAAAAAAAAAAAAAAAAAAAAAAAAAAAAAAAAAAAAAAAAAAAAAAAAAAAAAAAAAAAAAAAAAAAAAAAAAAAAAAAAAAAAAAAAAAAAAAAAAAAAAAAAAAAAAAAAAAAAAAAAAAAAAAAAAAAAAAAAAAAAAAAAAAAAAAAAAAAAAAAAAAAAAAAAAAAAAAAAAAAAAAAAAAAAAAAAAAAAAAAAAAAAAAAAAAAAAAAAAAAAAAAAAAAAAAAAAAAAAAAAAAAAAAAAAAAAAAAAAAAAAAAAAAAAAAAAAAAAAAAAAAAAAAAAAAAAAAAAAAAAAAAAAAAAAAAAAAAAAAAAAAAAAAAAAAAAAAAAAAAAAAAAAAAAAAAAAAAAAAAAAAAAAAAAAAAAAAAAAAAAAAAAAAAAAAAAAAAAAAAAAAAAAAAAAAAAAAAAAAAAAAAAAAAAAAAAAAAAAAAAAAAAAAAAAAAAAAAAAAAAAAAAAAAAAAAAAAAAAAAAAAAAAAAAAAAAAAAAAAAAAAAAAAAAAAAAAAAAAAAAAAAAAAAAAAAAAAAAAAAAAAAAAAAAAAAAAAAAAAAAAAAAAAAAAAAAAAAAAAAAAAAAAAAAAAAAAAAAAAAAAAAAAAAAAAAAAAAAAAAAAAAAAAAAAAAAAAAAAAAAAAAAAAAAAAAAAAAAAAAAAAAAAAAAAAAAAAAAAAAAAAAAAAAAAAAAAAAAAAAAAAAAAAAAAAAAAAAAAAAAAAAAAAAAAAAAAAAAAAAAAAAAAAAAAAAAAAAAAAAAAAAAAAAAAAAAAAAAAAAAAAAAAAAAAAAAAAAAAAAAAAAAAAAAAAAAAAAAAAAAAAAAAAAAAAAAAAAAAAAAAAAAAAAAAAAAAAAAAAAAAAAAAAAAAAAAAAAAAAAAAAAAAAAAAAAAAAAAAAAAAAAAAAAAAAAAAAAAAAAAAAAAAAAAAAAAAAAAAAAAAAAAAAAAAAAAAAAAAAAAAAAAAAAAAAAAAAAAAAAAAAAAAAAAAAAAAAAAAAAAAAAAAAAAAAAAAAAAAAAAAAAAAAAAAAAAAAAAAAAAAAAAAAAAAAAAAAAAAAAAAAAAAAAAAAAAAAAAAAAAAAAAAAAAAAAAAAAAAAAAAAAAAAAAAAAAAAAAAAAAAAAAAAAAAAAAAAAAAAAAAAAAAAAAAAAAAAAAAAAAAAAAAAAAAAAAAAAAAAAAAAAAAAAAAAAAAAAAAAAAAAAAAAAAAAAAAAAAAAAAAAAAAAAAAAAAAAAAAAAAAAAAAAAAAAAAAAAAAAAAAAAAAAAAAAAAAAAAAAAAAAAAAAAAAAAAAAAAAAAAAAAAAAAAAAAAAAAAAAAAAAAAAAAAAAAAAAAAAAAAAAAAAAAAAAAAAAAAAAAAAAAAAAAAAAAAAAAAAAAAAAAAAAAAAAAAAAAAAAAAAAAAAAAAAAAAAAAAAAAAAAAAAAAAAAAAAAAAAAAAAAAAAAAAAAAAAAAAAAAAAAAAAAAAAAAAAAAAAAAAAAAAAAAAAAAAAAAAAAAAAAAAAAAAAAAAAAAAAAAAAAAAAAAAAAAAAAAAAAAAAAAAAAAAAAAAAAAAAAAAAAAAAAAAAAAAAAAAAAAAAAAAAAAAAAAAAAAAAAAAAAAAAAAAAAAAAAAAAAAAAAAAAAAAAAAAAAAAAAAAAAAAAAAAAAAAAAAAAAAAAAAAAAAAAAAAAAAAAAAAAAAAAAAAAAAAAAAAAAAAAAAAAAAAAAAAAAAAAAAAAAAAAAAAAAAAAAAAAAAAAAAAAAAAAAAAAAAAAAAAAAAAAAAAAAAAAAAAAAAAAAAAAAAAAAAAAAAAAAAAAAAAAAAAAAAAAAAAAAAAAAAAAAAAAAAAAAAAAAAAAAAAAAAAAAAAAAAAAAAAAAAAAAAAAAAAAAAAAAAAAAAAAAAAAAAAAAAAAAAAAAAAAAAAAAAAAAAAAAAAAAAAAAAAAAAAAAAAAAAAAAAAAAAAAAAAAAAAAAAAAAAAAAAAAAAAAAAAAAAAAAAAAAAAAAAAAAAAAAAAAAAAAAAAAAAAAAAAAAAPZYQDDvY3+qMySneLm+aseWhZ1OzU0sxpuNgZiQNYoBqIps2HOzegTIHpPx5H4wIa7rbJLtDwCP3kcCr2JzuBmnqNs=</c2pa:manifest></metadata><rect width="1200" height="560" fill="none"></rect><circle cx="520" cy="50" r="3.4" fill="#12A02A" opacity="0.25"></circle><circle cx="540" cy="50" r="3.4" fill="#12A02A" opacity="0.25"></circle><circle cx="560" cy="50" r="3.4" fill="#12A02A" opacity="0.26"></circle><circle cx="580" cy="50" r="3.4" fill="#12A02A" opacity="0.26"></circle><circle cx="600" cy="50" r="3.4" fill="#12A02A" opacity="0.26"></circle><circle cx="620" cy="50" r="3.4" fill="#12A02A" opacity="0.26"></circle><circle cx="640" cy="50" r="3.4" fill="#12A02A" opacity="0.26"></circle><circle cx="660" cy="50" r="3.4" fill="#12A02A" opacity="0.26"></circle><circle cx="400" cy="70" r="3.4" fill="#12A02A" opacity="0.26"></circle><circle cx="420" cy="70" r="3.4" fill="#12A02A" opacity="0.27"></circle><circle cx="440" cy="70" r="3.4" fill="#12A02A" opacity="0.28"></circle><circle cx="460" cy="70" r="3.4" fill="#12A02A" opacity="0.28"></circle><circle cx="480" cy="70" r="3.4" fill="#12A02A" opacity="0.29"></circle><circle cx="500" cy="70" r="3.4" fill="#12A02A" opacity="0.29"></circle><circle cx="760" cy="70" r="3.4" fill="#12A02A" opacity="0.28"></circle><circle cx="780" cy="70" r="3.4" fill="#12A02A" opacity="0.28"></circle><circle cx="800" cy="70" r="3.4" fill="#12A02A" opacity="0.27"></circle><circle cx="820" cy="70" r="3.4" fill="#12A02A" opacity="0.26"></circle><circle cx="840" cy="70" r="3.4" fill="#12A02A" opacity="0.26"></circle><circle cx="400" cy="90" r="3.4" fill="#12A02A" opacity="0.31"></circle><circle cx="420" cy="90" r="3.4" fill="#12A02A" opacity="0.32"></circle><circle cx="440" cy="90" r="3.4" fill="#12A02A" opacity="0.32"></circle><circle cx="460" cy="90" r="3.4" fill="#12A02A" opacity="0.33"></circle><circle cx="480" cy="90" r="3.4" fill="#12A02A" opacity="0.33"></circle><circle cx="760" cy="90" r="3.4" fill="#12A02A" opacity="0.33"></circle><circle cx="780" cy="90" r="3.4" fill="#12A02A" opacity="0.32"></circle><circle cx="800" cy="90" r="3.4" fill="#12A02A" opacity="0.32"></circle><circle cx="820" cy="90" r="3.4" fill="#12A02A" opacity="0.31"></circle><circle cx="840" cy="90" r="3.4" fill="#12A02A" opacity="0.30"></circle><circle cx="400" cy="110" r="3.4" fill="#12A02A" opacity="0.35"></circle><circle cx="420" cy="110" r="3.4" fill="#12A02A" opacity="0.36"></circle><circle cx="440" cy="110" r="3.4" fill="#12A02A" opacity="0.37"></circle><circle cx="460" cy="110" r="3.4" fill="#12A02A" opacity="0.37"></circle><circle cx="760" cy="110" r="3.4" fill="#12A02A" opacity="0.37"></circle><circle cx="780" cy="110" r="3.4" fill="#12A02A" opacity="0.37"></circle><circle cx="800" cy="110" r="3.4" fill="#12A02A" opacity="0.36"></circle><circle cx="820" cy="110" r="3.4" fill="#12A02A" opacity="0.35"></circle><circle cx="260" cy="130" r="3.4" fill="#12A02A" opacity="0.31"></circle><circle cx="280" cy="130" r="3.4" fill="#12A02A" opacity="0.32"></circle><circle cx="300" cy="130" r="3.4" fill="#12A02A" opacity="0.34"></circle><circle cx="380" cy="130" r="3.4" fill="#12A02A" opacity="0.38"></circle><circle cx="400" cy="130" r="3.4" fill="#12A02A" opacity="0.39"></circle><circle cx="420" cy="130" r="3.4" fill="#12A02A" opacity="0.40"></circle><circle cx="440" cy="130" r="3.4" fill="#12A02A" opacity="0.41"></circle><circle cx="460" cy="130" r="3.4" fill="#12A02A" opacity="0.42"></circle><circle cx="480" cy="130" r="3.4" fill="#12A02A" opacity="0.42"></circle><circle cx="620" cy="130" r="3.4" fill="#12A02A" opacity="0.45"></circle><circle cx="640" cy="130" r="3.4" fill="#12A02A" opacity="0.44"></circle><circle cx="660" cy="130" r="3.4" fill="#12A02A" opacity="0.44"></circle><circle cx="740" cy="130" r="3.4" fill="#12A02A" opacity="0.42"></circle><circle cx="760" cy="130" r="3.4" fill="#12A02A" opacity="0.42"></circle><circle cx="780" cy="130" r="3.4" fill="#12A02A" opacity="0.41"></circle><circle cx="800" cy="130" r="3.4" fill="#12A02A" opacity="0.40"></circle><circle cx="820" cy="130" r="3.4" fill="#12A02A" opacity="0.39"></circle><circle cx="840" cy="130" r="3.4" fill="#12A02A" opacity="0.38"></circle><circle cx="980" cy="130" r="3.4" fill="#12A02A" opacity="0.30"></circle><circle cx="1000" cy="130" r="3.4" fill="#12A02A" opacity="0.28"></circle><circle cx="1020" cy="130" r="3.4" fill="#12A02A" opacity="0.27"></circle><circle cx="240" cy="150" r="3.4" fill="#12A02A" opacity="0.33"></circle><circle cx="260" cy="150" r="3.4" fill="#12A02A" opacity="0.34"></circle><circle cx="280" cy="150" r="3.4" fill="#12A02A" opacity="0.36"></circle><circle cx="300" cy="150" r="3.4" fill="#12A02A" opacity="0.37"></circle><circle cx="320" cy="150" r="3.4" fill="#12A02A" opacity="0.38"></circle><circle cx="340" cy="150" r="3.4" fill="#12A02A" opacity="0.40"></circle><circle cx="360" cy="150" r="3.4" fill="#12A02A" opacity="0.41"></circle><circle cx="380" cy="150" r="3.4" fill="#12A02A" opacity="0.42"></circle><circle cx="400" cy="150" r="3.4" fill="#12A02A" opacity="0.43"></circle><circle cx="420" cy="150" r="3.4" fill="#12A02A" opacity="0.44"></circle><circle cx="440" cy="150" r="3.4" fill="#12A02A" opacity="0.45"></circle><circle cx="460" cy="150" r="3.4" fill="#12A02A" opacity="0.46"></circle><circle cx="480" cy="150" r="3.4" fill="#12A02A" opacity="0.47"></circle><circle cx="580" cy="150" r="3.4" fill="#12A02A" opacity="0.49"></circle><circle cx="600" cy="150" r="3.4" fill="#12A02A" opacity="0.49"></circle><circle cx="620" cy="150" r="3.4" fill="#12A02A" opacity="0.49"></circle><circle cx="640" cy="150" r="3.4" fill="#12A02A" opacity="0.49"></circle><circle cx="660" cy="150" r="3.4" fill="#12A02A" opacity="0.49"></circle><circle cx="680" cy="150" r="3.4" fill="#12A02A" opacity="0.49"></circle><circle cx="700" cy="150" r="3.4" fill="#12A02A" opacity="0.48"></circle><circle cx="720" cy="150" r="3.4" fill="#12A02A" opacity="0.48"></circle><circle cx="740" cy="150" r="3.4" fill="#12A02A" opacity="0.47"></circle><circle cx="760" cy="150" r="3.4" fill="#12A02A" opacity="0.46"></circle><circle cx="780" cy="150" r="3.4" fill="#12A02A" opacity="0.45"></circle><circle cx="800" cy="150" r="3.4" fill="#12A02A" opacity="0.44"></circle><circle cx="820" cy="150" r="3.4" fill="#12A02A" opacity="0.43"></circle><circle cx="840" cy="150" r="3.4" fill="#12A02A" opacity="0.42"></circle><circle cx="940" cy="150" r="3.4" fill="#12A02A" opacity="0.36"></circle><circle cx="960" cy="150" r="3.4" fill="#12A02A" opacity="0.34"></circle><circle cx="980" cy="150" r="3.4" fill="#12A02A" opacity="0.33"></circle><circle cx="1000" cy="150" r="3.4" fill="#12A02A" opacity="0.31"></circle><circle cx="1020" cy="150" r="3.4" fill="#12A02A" opacity="0.30"></circle><circle cx="1040" cy="150" r="3.4" fill="#12A02A" opacity="0.28"></circle><circle cx="1060" cy="150" r="3.4" fill="#12A02A" opacity="0.27"></circle><circle cx="1080" cy="150" r="3.4" fill="#12A02A" opacity="0.25"></circle><circle cx="120" cy="170" r="3.4" fill="#12A02A" opacity="0.26"></circle><circle cx="220" cy="170" r="3.4" fill="#12A02A" opacity="0.34"></circle><circle cx="240" cy="170" r="3.4" fill="#12A02A" opacity="0.36"></circle><circle cx="260" cy="170" r="3.4" fill="#12A02A" opacity="0.37"></circle><circle cx="280" cy="170" r="3.4" fill="#12A02A" opacity="0.39"></circle><circle cx="300" cy="170" r="3.4" fill="#12A02A" opacity="0.40"></circle><circle cx="320" cy="170" r="3.4" fill="#12A02A" opacity="0.42"></circle><circle cx="340" cy="170" r="3.4" fill="#12A02A" opacity="0.43"></circle><circle cx="360" cy="170" r="3.4" fill="#12A02A" opacity="0.45"></circle><circle cx="380" cy="170" r="3.4" fill="#12A02A" opacity="0.46"></circle><circle cx="400" cy="170" r="3.4" fill="#12A02A" opacity="0.47"></circle><circle cx="420" cy="170" r="3.4" fill="#12A02A" opacity="0.48"></circle><circle cx="440" cy="170" r="3.4" fill="#12A02A" opacity="0.49"></circle><circle cx="460" cy="170" r="3.4" fill="#12A02A" opacity="0.50"></circle><circle cx="480" cy="170" r="3.4" fill="#12A02A" opacity="0.51"></circle><circle cx="580" cy="170" r="3.4" fill="#12A02A" opacity="0.54"></circle><circle cx="600" cy="170" r="3.4" fill="#12A02A" opacity="0.54"></circle><circle cx="620" cy="170" r="3.4" fill="#12A02A" opacity="0.54"></circle><circle cx="640" cy="170" r="3.4" fill="#12A02A" opacity="0.54"></circle><circle cx="660" cy="170" r="3.4" fill="#12A02A" opacity="0.54"></circle><circle cx="680" cy="170" r="3.4" fill="#12A02A" opacity="0.53"></circle><circle cx="700" cy="170" r="3.4" fill="#12A02A" opacity="0.53"></circle><circle cx="720" cy="170" r="3.4" fill="#12A02A" opacity="0.52"></circle><circle cx="740" cy="170" r="3.4" fill="#12A02A" opacity="0.51"></circle><circle cx="760" cy="170" r="3.4" fill="#12A02A" opacity="0.50"></circle><circle cx="780" cy="170" r="3.4" fill="#12A02A" opacity="0.49"></circle><circle cx="800" cy="170" r="3.4" fill="#12A02A" opacity="0.48"></circle><circle cx="820" cy="170" r="3.4" fill="#12A02A" opacity="0.47"></circle><circle cx="840" cy="170" r="3.4" fill="#12A02A" opacity="0.46"></circle><circle cx="940" cy="170" r="3.4" fill="#12A02A" opacity="0.39"></circle><circle cx="960" cy="170" r="3.4" fill="#12A02A" opacity="0.37"></circle><circle cx="980" cy="170" r="3.4" fill="#12A02A" opacity="0.36"></circle><circle cx="1000" cy="170" r="3.4" fill="#12A02A" opacity="0.34"></circle><circle cx="1020" cy="170" r="3.4" fill="#12A02A" opacity="0.33"></circle><circle cx="1040" cy="170" r="3.4" fill="#12A02A" opacity="0.31"></circle><circle cx="1060" cy="170" r="3.4" fill="#12A02A" opacity="0.29"></circle><circle cx="1080" cy="170" r="3.4" fill="#12A02A" opacity="0.28"></circle><circle cx="1100" cy="170" r="3.4" fill="#12A02A" opacity="0.26"></circle><circle cx="100" cy="190" r="3.4" fill="#12A02A" opacity="0.26"></circle><circle cx="120" cy="190" r="3.4" fill="#12A02A" opacity="0.28"></circle><circle cx="220" cy="190" r="3.4" fill="#12A02A" opacity="0.37"></circle><circle cx="240" cy="190" r="3.4" fill="#12A02A" opacity="0.38"></circle><circle cx="260" cy="190" r="3.4" fill="#12A02A" opacity="0.40"></circle><circle cx="280" cy="190" r="3.4" fill="#12A02A" opacity="0.42"></circle><circle cx="300" cy="190" r="3.4" fill="#12A02A" opacity="0.43"></circle><circle cx="320" cy="190" r="3.4" fill="#12A02A" opacity="0.45"></circle><circle cx="340" cy="190" r="3.4" fill="#12A02A" opacity="0.46"></circle><circle cx="360" cy="190" r="3.4" fill="#12A02A" opacity="0.48"></circle><circle cx="380" cy="190" r="3.4" fill="#12A02A" opacity="0.49"></circle><circle cx="400" cy="190" r="3.4" fill="#12A02A" opacity="0.51"></circle><circle cx="420" cy="190" r="3.4" fill="#12A02A" opacity="0.52"></circle><circle cx="440" cy="190" r="3.4" fill="#12A02A" opacity="0.53"></circle><circle cx="460" cy="190" r="3.4" fill="#12A02A" opacity="0.54"></circle><circle cx="480" cy="190" r="3.4" fill="#12A02A" opacity="0.55"></circle><circle cx="580" cy="190" r="3.4" fill="#12A02A" opacity="0.59"></circle><circle cx="600" cy="190" r="3.4" fill="#12A02A" opacity="0.59"></circle><circle cx="620" cy="190" r="3.4" fill="#12A02A" opacity="0.59"></circle><circle cx="640" cy="190" r="3.4" fill="#12A02A" opacity="0.59"></circle><circle cx="660" cy="190" r="3.4" fill="#12A02A" opacity="0.58"></circle><circle cx="680" cy="190" r="3.4" fill="#12A02A" opacity="0.58"></circle><circle cx="700" cy="190" r="3.4" fill="#12A02A" opacity="0.57"></circle><circle cx="720" cy="190" r="3.4" fill="#12A02A" opacity="0.56"></circle><circle cx="740" cy="190" r="3.4" fill="#12A02A" opacity="0.55"></circle><circle cx="760" cy="190" r="3.4" fill="#12A02A" opacity="0.54"></circle><circle cx="780" cy="190" r="3.4" fill="#12A02A" opacity="0.53"></circle><circle cx="800" cy="190" r="3.4" fill="#12A02A" opacity="0.52"></circle><circle cx="820" cy="190" r="3.4" fill="#12A02A" opacity="0.51"></circle><circle cx="840" cy="190" r="3.4" fill="#12A02A" opacity="0.49"></circle><circle cx="940" cy="190" r="3.4" fill="#12A02A" opacity="0.42"></circle><circle cx="960" cy="190" r="3.4" fill="#12A02A" opacity="0.40"></circle><circle cx="980" cy="190" r="3.4" fill="#12A02A" opacity="0.38"></circle><circle cx="1000" cy="190" r="3.4" fill="#12A02A" opacity="0.37"></circle><circle cx="1020" cy="190" r="3.4" fill="#12A02A" opacity="0.35"></circle><circle cx="1040" cy="190" r="3.4" fill="#12A02A" opacity="0.33"></circle><circle cx="1060" cy="190" r="3.4" fill="#12A02A" opacity="0.32"></circle><circle cx="1080" cy="190" r="3.4" fill="#12A02A" opacity="0.30"></circle><circle cx="1100" cy="190" r="3.4" fill="#12A02A" opacity="0.28"></circle><circle cx="1120" cy="190" r="3.4" fill="#12A02A" opacity="0.26"></circle><circle cx="80" cy="210" r="3.4" fill="#12A02A" opacity="0.26"></circle><circle cx="240" cy="210" r="3.4" fill="#12A02A" opacity="0.41"></circle><circle cx="260" cy="210" r="3.4" fill="#12A02A" opacity="0.42"></circle><circle cx="280" cy="210" r="3.4" fill="#12A02A" opacity="0.44"></circle><circle cx="300" cy="210" r="3.4" fill="#12A02A" opacity="0.46"></circle><circle cx="320" cy="210" r="3.4" fill="#12A02A" opacity="0.48"></circle><circle cx="420" cy="210" r="3.4" fill="#12A02A" opacity="0.55"></circle><circle cx="440" cy="210" r="3.4" fill="#12A02A" opacity="0.57"></circle><circle cx="580" cy="210" r="3.4" fill="#12A02A" opacity="0.63"></circle><circle cx="600" cy="210" r="3.4" fill="#12A02A" opacity="0.63"></circle><circle cx="620" cy="210" r="3.4" fill="#12A02A" opacity="0.63"></circle><circle cx="640" cy="210" r="3.4" fill="#12A02A" opacity="0.63"></circle><circle cx="660" cy="210" r="3.4" fill="#12A02A" opacity="0.63"></circle><circle cx="680" cy="210" r="3.4" fill="#12A02A" opacity="0.62"></circle><circle cx="780" cy="210" r="3.4" fill="#12A02A" opacity="0.57"></circle><circle cx="800" cy="210" r="3.4" fill="#12A02A" opacity="0.55"></circle><circle cx="940" cy="210" r="3.4" fill="#12A02A" opacity="0.44"></circle><circle cx="960" cy="210" r="3.4" fill="#12A02A" opacity="0.42"></circle><circle cx="980" cy="210" r="3.4" fill="#12A02A" opacity="0.41"></circle><circle cx="1000" cy="210" r="3.4" fill="#12A02A" opacity="0.39"></circle><circle cx="1020" cy="210" r="3.4" fill="#12A02A" opacity="0.37"></circle><circle cx="1040" cy="210" r="3.4" fill="#12A02A" opacity="0.35"></circle><circle cx="1140" cy="210" r="3.4" fill="#12A02A" opacity="0.26"></circle><circle cx="240" cy="230" r="3.4" fill="#12A02A" opacity="0.42"></circle><circle cx="260" cy="230" r="3.4" fill="#12A02A" opacity="0.44"></circle><circle cx="280" cy="230" r="3.4" fill="#12A02A" opacity="0.46"></circle><circle cx="300" cy="230" r="3.4" fill="#12A02A" opacity="0.48"></circle><circle cx="600" cy="230" r="3.4" fill="#12A02A" opacity="0.68"></circle><circle cx="620" cy="230" r="3.4" fill="#12A02A" opacity="0.68"></circle><circle cx="640" cy="230" r="3.4" fill="#12A02A" opacity="0.68"></circle><circle cx="660" cy="230" r="3.4" fill="#12A02A" opacity="0.67"></circle><circle cx="960" cy="230" r="3.4" fill="#12A02A" opacity="0.44"></circle><circle cx="980" cy="230" r="3.4" fill="#12A02A" opacity="0.42"></circle><circle cx="1000" cy="230" r="3.4" fill="#12A02A" opacity="0.41"></circle><circle cx="1020" cy="230" r="3.4" fill="#12A02A" opacity="0.39"></circle><circle cx="240" cy="250" r="3.4" fill="#12A02A" opacity="0.44"></circle><circle cx="260" cy="250" r="3.4" fill="#12A02A" opacity="0.45"></circle><circle cx="280" cy="250" r="3.4" fill="#12A02A" opacity="0.47"></circle><circle cx="300" cy="250" r="3.4" fill="#12A02A" opacity="0.49"></circle><circle cx="580" cy="250" r="3.4" fill="#12A02A" opacity="0.72"></circle><circle cx="600" cy="250" r="3.4" fill="#12A02A" opacity="0.73"></circle><circle cx="620" cy="250" r="3.4" fill="#12A02A" opacity="0.73"></circle><circle cx="640" cy="250" r="3.4" fill="#12A02A" opacity="0.72"></circle><circle cx="660" cy="250" r="3.4" fill="#12A02A" opacity="0.71"></circle><circle cx="940" cy="250" r="3.4" fill="#12A02A" opacity="0.47"></circle><circle cx="960" cy="250" r="3.4" fill="#12A02A" opacity="0.45"></circle><circle cx="980" cy="250" r="3.4" fill="#12A02A" opacity="0.44"></circle><circle cx="1000" cy="250" r="3.4" fill="#12A02A" opacity="0.42"></circle><circle cx="1020" cy="250" r="3.4" fill="#12A02A" opacity="0.40"></circle><circle cx="80" cy="270" r="3.4" fill="#12A02A" opacity="0.29"></circle><circle cx="100" cy="270" r="3.4" fill="#12A02A" opacity="0.31"></circle><circle cx="200" cy="270" r="3.4" fill="#12A02A" opacity="0.40"></circle><circle cx="220" cy="270" r="3.4" fill="#12A02A" opacity="0.42"></circle><circle cx="240" cy="270" r="3.4" fill="#12A02A" opacity="0.44"></circle><circle cx="260" cy="270" r="3.4" fill="#12A02A" opacity="0.46"></circle><circle cx="280" cy="270" r="3.4" fill="#12A02A" opacity="0.48"></circle><circle cx="300" cy="270" r="3.4" fill="#12A02A" opacity="0.50"></circle><circle cx="440" cy="270" r="3.4" fill="#12A02A" opacity="0.63"></circle><circle cx="460" cy="270" r="3.4" fill="#12A02A" opacity="0.65"></circle><circle cx="560" cy="270" r="3.4" fill="#12A02A" opacity="0.75"></circle><circle cx="580" cy="270" r="3.4" fill="#12A02A" opacity="0.76"></circle><circle cx="600" cy="270" r="3.4" fill="#12A02A" opacity="0.77"></circle><circle cx="620" cy="270" r="3.4" fill="#12A02A" opacity="0.77"></circle><circle cx="640" cy="270" r="3.4" fill="#12A02A" opacity="0.76"></circle><circle cx="660" cy="270" r="3.4" fill="#12A02A" opacity="0.75"></circle><circle cx="800" cy="270" r="3.4" fill="#12A02A" opacity="0.62"></circle><circle cx="920" cy="270" r="3.4" fill="#12A02A" opacity="0.50"></circle><circle cx="940" cy="270" r="3.4" fill="#12A02A" opacity="0.48"></circle><circle cx="960" cy="270" r="3.4" fill="#12A02A" opacity="0.46"></circle><circle cx="980" cy="270" r="3.4" fill="#12A02A" opacity="0.44"></circle><circle cx="1000" cy="270" r="3.4" fill="#12A02A" opacity="0.42"></circle><circle cx="1020" cy="270" r="3.4" fill="#12A02A" opacity="0.40"></circle><circle cx="1160" cy="270" r="3.4" fill="#12A02A" opacity="0.27"></circle><circle cx="60" cy="290" r="3.4" fill="#12A02A" opacity="0.27"></circle><circle cx="80" cy="290" r="3.4" fill="#12A02A" opacity="0.29"></circle><circle cx="100" cy="290" r="3.4" fill="#12A02A" opacity="0.31"></circle><circle cx="120" cy="290" r="3.4" fill="#12A02A" opacity="0.33"></circle><circle cx="140" cy="290" r="3.4" fill="#12A02A" opacity="0.35"></circle><circle cx="160" cy="290" r="3.4" fill="#12A02A" opacity="0.37"></circle><circle cx="180" cy="290" r="3.4" fill="#12A02A" opacity="0.38"></circle><circle cx="200" cy="290" r="3.4" fill="#12A02A" opacity="0.40"></circle><circle cx="220" cy="290" r="3.4" fill="#12A02A" opacity="0.42"></circle><circle cx="240" cy="290" r="3.4" fill="#12A02A" opacity="0.44"></circle><circle cx="260" cy="290" r="3.4" fill="#12A02A" opacity="0.46"></circle><circle cx="280" cy="290" r="3.4" fill="#12A02A" opacity="0.48"></circle><circle cx="300" cy="290" r="3.4" fill="#12A02A" opacity="0.50"></circle><circle cx="320" cy="290" r="3.4" fill="#12A02A" opacity="0.52"></circle><circle cx="420" cy="290" r="3.4" fill="#12A02A" opacity="0.62"></circle><circle cx="440" cy="290" r="3.4" fill="#12A02A" opacity="0.63"></circle><circle cx="460" cy="290" r="3.4" fill="#12A02A" opacity="0.65"></circle><circle cx="480" cy="290" r="3.4" fill="#12A02A" opacity="0.67"></circle><circle cx="500" cy="290" r="3.4" fill="#12A02A" opacity="0.69"></circle><circle cx="520" cy="290" r="3.4" fill="#12A02A" opacity="0.71"></circle><circle cx="540" cy="290" r="3.4" fill="#12A02A" opacity="0.73"></circle><circle cx="560" cy="290" r="3.4" fill="#12A02A" opacity="0.75"></circle><circle cx="580" cy="290" r="3.4" fill="#12A02A" opacity="0.76"></circle><circle cx="600" cy="290" r="3.4" fill="#12A02A" opacity="0.77"></circle><circle cx="620" cy="290" r="3.4" fill="#12A02A" opacity="0.77"></circle><circle cx="640" cy="290" r="3.4" fill="#12A02A" opacity="0.76"></circle><circle cx="660" cy="290" r="3.4" fill="#12A02A" opacity="0.75"></circle><circle cx="680" cy="290" r="3.4" fill="#12A02A" opacity="0.73"></circle><circle cx="780" cy="290" r="3.4" fill="#12A02A" opacity="0.63"></circle><circle cx="800" cy="290" r="3.4" fill="#12A02A" opacity="0.62"></circle><circle cx="820" cy="290" r="3.4" fill="#12A02A" opacity="0.60"></circle><circle cx="840" cy="290" r="3.4" fill="#12A02A" opacity="0.58"></circle><circle cx="860" cy="290" r="3.4" fill="#12A02A" opacity="0.56"></circle><circle cx="880" cy="290" r="3.4" fill="#12A02A" opacity="0.54"></circle><circle cx="900" cy="290" r="3.4" fill="#12A02A" opacity="0.52"></circle><circle cx="920" cy="290" r="3.4" fill="#12A02A" opacity="0.50"></circle><circle cx="940" cy="290" r="3.4" fill="#12A02A" opacity="0.48"></circle><circle cx="960" cy="290" r="3.4" fill="#12A02A" opacity="0.46"></circle><circle cx="980" cy="290" r="3.4" fill="#12A02A" opacity="0.44"></circle><circle cx="1000" cy="290" r="3.4" fill="#12A02A" opacity="0.42"></circle><circle cx="1020" cy="290" r="3.4" fill="#12A02A" opacity="0.40"></circle><circle cx="1040" cy="290" r="3.4" fill="#12A02A" opacity="0.38"></circle><circle cx="1140" cy="290" r="3.4" fill="#12A02A" opacity="0.29"></circle><circle cx="1160" cy="290" r="3.4" fill="#12A02A" opacity="0.27"></circle><circle cx="60" cy="310" r="3.4" fill="#12A02A" opacity="0.26"></circle><circle cx="80" cy="310" r="3.4" fill="#12A02A" opacity="0.28"></circle><circle cx="100" cy="310" r="3.4" fill="#12A02A" opacity="0.30"></circle><circle cx="120" cy="310" r="3.4" fill="#12A02A" opacity="0.32"></circle><circle cx="140" cy="310" r="3.4" fill="#12A02A" opacity="0.34"></circle><circle cx="160" cy="310" r="3.4" fill="#12A02A" opacity="0.36"></circle><circle cx="180" cy="310" r="3.4" fill="#12A02A" opacity="0.38"></circle><circle cx="200" cy="310" r="3.4" fill="#12A02A" opacity="0.40"></circle><circle cx="220" cy="310" r="3.4" fill="#12A02A" opacity="0.42"></circle><circle cx="240" cy="310" r="3.4" fill="#12A02A" opacity="0.44"></circle><circle cx="260" cy="310" r="3.4" fill="#12A02A" opacity="0.45"></circle><circle cx="280" cy="310" r="3.4" fill="#12A02A" opacity="0.47"></circle><circle cx="300" cy="310" r="3.4" fill="#12A02A" opacity="0.49"></circle><circle cx="320" cy="310" r="3.4" fill="#12A02A" opacity="0.51"></circle><circle cx="400" cy="310" r="3.4" fill="#12A02A" opacity="0.59"></circle><circle cx="420" cy="310" r="3.4" fill="#12A02A" opacity="0.60"></circle><circle cx="440" cy="310" r="3.4" fill="#12A02A" opacity="0.62"></circle><circle cx="460" cy="310" r="3.4" fill="#12A02A" opacity="0.64"></circle><circle cx="480" cy="310" r="3.4" fill="#12A02A" opacity="0.66"></circle><circle cx="500" cy="310" r="3.4" fill="#12A02A" opacity="0.67"></circle><circle cx="520" cy="310" r="3.4" fill="#12A02A" opacity="0.69"></circle><circle cx="540" cy="310" r="3.4" fill="#12A02A" opacity="0.70"></circle><circle cx="560" cy="310" r="3.4" fill="#12A02A" opacity="0.71"></circle><circle cx="580" cy="310" r="3.4" fill="#12A02A" opacity="0.72"></circle><circle cx="600" cy="310" r="3.4" fill="#12A02A" opacity="0.73"></circle><circle cx="620" cy="310" r="3.4" fill="#12A02A" opacity="0.73"></circle><circle cx="640" cy="310" r="3.4" fill="#12A02A" opacity="0.72"></circle><circle cx="660" cy="310" r="3.4" fill="#12A02A" opacity="0.71"></circle><circle cx="680" cy="310" r="3.4" fill="#12A02A" opacity="0.70"></circle><circle cx="760" cy="310" r="3.4" fill="#12A02A" opacity="0.64"></circle><circle cx="780" cy="310" r="3.4" fill="#12A02A" opacity="0.62"></circle><circle cx="800" cy="310" r="3.4" fill="#12A02A" opacity="0.60"></circle><circle cx="820" cy="310" r="3.4" fill="#12A02A" opacity="0.59"></circle><circle cx="840" cy="310" r="3.4" fill="#12A02A" opacity="0.57"></circle><circle cx="860" cy="310" r="3.4" fill="#12A02A" opacity="0.55"></circle><circle cx="880" cy="310" r="3.4" fill="#12A02A" opacity="0.53"></circle><circle cx="900" cy="310" r="3.4" fill="#12A02A" opacity="0.51"></circle><circle cx="920" cy="310" r="3.4" fill="#12A02A" opacity="0.49"></circle><circle cx="940" cy="310" r="3.4" fill="#12A02A" opacity="0.47"></circle><circle cx="960" cy="310" r="3.4" fill="#12A02A" opacity="0.45"></circle><circle cx="980" cy="310" r="3.4" fill="#12A02A" opacity="0.44"></circle><circle cx="1000" cy="310" r="3.4" fill="#12A02A" opacity="0.42"></circle><circle cx="1020" cy="310" r="3.4" fill="#12A02A" opacity="0.40"></circle><circle cx="1040" cy="310" r="3.4" fill="#12A02A" opacity="0.38"></circle><circle cx="1120" cy="310" r="3.4" fill="#12A02A" opacity="0.30"></circle><circle cx="1140" cy="310" r="3.4" fill="#12A02A" opacity="0.28"></circle><circle cx="1160" cy="310" r="3.4" fill="#12A02A" opacity="0.26"></circle><circle cx="60" cy="330" r="3.4" fill="#12A02A" opacity="0.26"></circle><circle cx="80" cy="330" r="3.4" fill="#12A02A" opacity="0.28"></circle><circle cx="100" cy="330" r="3.4" fill="#12A02A" opacity="0.29"></circle><circle cx="120" cy="330" r="3.4" fill="#12A02A" opacity="0.31"></circle><circle cx="140" cy="330" r="3.4" fill="#12A02A" opacity="0.33"></circle><circle cx="160" cy="330" r="3.4" fill="#12A02A" opacity="0.35"></circle><circle cx="180" cy="330" r="3.4" fill="#12A02A" opacity="0.37"></circle><circle cx="200" cy="330" r="3.4" fill="#12A02A" opacity="0.39"></circle><circle cx="220" cy="330" r="3.4" fill="#12A02A" opacity="0.41"></circle><circle cx="240" cy="330" r="3.4" fill="#12A02A" opacity="0.42"></circle><circle cx="260" cy="330" r="3.4" fill="#12A02A" opacity="0.44"></circle><circle cx="280" cy="330" r="3.4" fill="#12A02A" opacity="0.46"></circle><circle cx="300" cy="330" r="3.4" fill="#12A02A" opacity="0.48"></circle><circle cx="420" cy="330" r="3.4" fill="#12A02A" opacity="0.58"></circle><circle cx="440" cy="330" r="3.4" fill="#12A02A" opacity="0.60"></circle><circle cx="460" cy="330" r="3.4" fill="#12A02A" opacity="0.61"></circle><circle cx="480" cy="330" r="3.4" fill="#12A02A" opacity="0.63"></circle><circle cx="500" cy="330" r="3.4" fill="#12A02A" opacity="0.64"></circle><circle cx="520" cy="330" r="3.4" fill="#12A02A" opacity="0.65"></circle><circle cx="540" cy="330" r="3.4" fill="#12A02A" opacity="0.66"></circle><circle cx="560" cy="330" r="3.4" fill="#12A02A" opacity="0.67"></circle><circle cx="580" cy="330" r="3.4" fill="#12A02A" opacity="0.68"></circle><circle cx="600" cy="330" r="3.4" fill="#12A02A" opacity="0.68"></circle><circle cx="620" cy="330" r="3.4" fill="#12A02A" opacity="0.68"></circle><circle cx="640" cy="330" r="3.4" fill="#12A02A" opacity="0.68"></circle><circle cx="660" cy="330" r="3.4" fill="#12A02A" opacity="0.67"></circle><circle cx="760" cy="330" r="3.4" fill="#12A02A" opacity="0.61"></circle><circle cx="780" cy="330" r="3.4" fill="#12A02A" opacity="0.60"></circle><circle cx="800" cy="330" r="3.4" fill="#12A02A" opacity="0.58"></circle><circle cx="820" cy="330" r="3.4" fill="#12A02A" opacity="0.57"></circle><circle cx="840" cy="330" r="3.4" fill="#12A02A" opacity="0.55"></circle><circle cx="860" cy="330" r="3.4" fill="#12A02A" opacity="0.53"></circle><circle cx="880" cy="330" r="3.4" fill="#12A02A" opacity="0.51"></circle><circle cx="900" cy="330" r="3.4" fill="#12A02A" opacity="0.50"></circle><circle cx="920" cy="330" r="3.4" fill="#12A02A" opacity="0.48"></circle><circle cx="940" cy="330" r="3.4" fill="#12A02A" opacity="0.46"></circle><circle cx="960" cy="330" r="3.4" fill="#12A02A" opacity="0.44"></circle><circle cx="980" cy="330" r="3.4" fill="#12A02A" opacity="0.42"></circle><circle cx="1000" cy="330" r="3.4" fill="#12A02A" opacity="0.41"></circle><circle cx="1020" cy="330" r="3.4" fill="#12A02A" opacity="0.39"></circle><circle cx="1120" cy="330" r="3.4" fill="#12A02A" opacity="0.29"></circle><circle cx="1140" cy="330" r="3.4" fill="#12A02A" opacity="0.28"></circle><circle cx="1160" cy="330" r="3.4" fill="#12A02A" opacity="0.26"></circle><circle cx="80" cy="350" r="3.4" fill="#12A02A" opacity="0.26"></circle><circle cx="100" cy="350" r="3.4" fill="#12A02A" opacity="0.28"></circle><circle cx="120" cy="350" r="3.4" fill="#12A02A" opacity="0.30"></circle><circle cx="140" cy="350" r="3.4" fill="#12A02A" opacity="0.32"></circle><circle cx="160" cy="350" r="3.4" fill="#12A02A" opacity="0.34"></circle><circle cx="200" cy="350" r="3.4" fill="#12A02A" opacity="0.37"></circle><circle cx="220" cy="350" r="3.4" fill="#12A02A" opacity="0.39"></circle><circle cx="240" cy="350" r="3.4" fill="#12A02A" opacity="0.41"></circle><circle cx="260" cy="350" r="3.4" fill="#12A02A" opacity="0.42"></circle><circle cx="280" cy="350" r="3.4" fill="#12A02A" opacity="0.44"></circle><circle cx="420" cy="350" r="3.4" fill="#12A02A" opacity="0.55"></circle><circle cx="440" cy="350" r="3.4" fill="#12A02A" opacity="0.57"></circle><circle cx="460" cy="350" r="3.4" fill="#12A02A" opacity="0.58"></circle><circle cx="480" cy="350" r="3.4" fill="#12A02A" opacity="0.59"></circle><circle cx="500" cy="350" r="3.4" fill="#12A02A" opacity="0.60"></circle><circle cx="520" cy="350" r="3.4" fill="#12A02A" opacity="0.61"></circle><circle cx="560" cy="350" r="3.4" fill="#12A02A" opacity="0.63"></circle><circle cx="580" cy="350" r="3.4" fill="#12A02A" opacity="0.63"></circle><circle cx="600" cy="350" r="3.4" fill="#12A02A" opacity="0.63"></circle><circle cx="620" cy="350" r="3.4" fill="#12A02A" opacity="0.63"></circle><circle cx="640" cy="350" r="3.4" fill="#12A02A" opacity="0.63"></circle><circle cx="780" cy="350" r="3.4" fill="#12A02A" opacity="0.57"></circle><circle cx="800" cy="350" r="3.4" fill="#12A02A" opacity="0.55"></circle><circle cx="820" cy="350" r="3.4" fill="#12A02A" opacity="0.54"></circle><circle cx="840" cy="350" r="3.4" fill="#12A02A" opacity="0.52"></circle><circle cx="860" cy="350" r="3.4" fill="#12A02A" opacity="0.51"></circle><circle cx="880" cy="350" r="3.4" fill="#12A02A" opacity="0.49"></circle><circle cx="920" cy="350" r="3.4" fill="#12A02A" opacity="0.46"></circle><circle cx="940" cy="350" r="3.4" fill="#12A02A" opacity="0.44"></circle><circle cx="960" cy="350" r="3.4" fill="#12A02A" opacity="0.42"></circle><circle cx="980" cy="350" r="3.4" fill="#12A02A" opacity="0.41"></circle><circle cx="1000" cy="350" r="3.4" fill="#12A02A" opacity="0.39"></circle><circle cx="1140" cy="350" r="3.4" fill="#12A02A" opacity="0.26"></circle><circle cx="100" cy="370" r="3.4" fill="#12A02A" opacity="0.26"></circle><circle cx="120" cy="370" r="3.4" fill="#12A02A" opacity="0.28"></circle><circle cx="440" cy="370" r="3.4" fill="#12A02A" opacity="0.53"></circle><circle cx="460" cy="370" r="3.4" fill="#12A02A" opacity="0.54"></circle><circle cx="480" cy="370" r="3.4" fill="#12A02A" opacity="0.55"></circle><circle cx="780" cy="370" r="3.4" fill="#12A02A" opacity="0.53"></circle><circle cx="800" cy="370" r="3.4" fill="#12A02A" opacity="0.52"></circle><circle cx="820" cy="370" r="3.4" fill="#12A02A" opacity="0.51"></circle><circle cx="840" cy="370" r="3.4" fill="#12A02A" opacity="0.49"></circle><circle cx="120" cy="390" r="3.4" fill="#12A02A" opacity="0.26"></circle><circle cx="420" cy="390" r="3.4" fill="#12A02A" opacity="0.48"></circle><circle cx="440" cy="390" r="3.4" fill="#12A02A" opacity="0.49"></circle><circle cx="460" cy="390" r="3.4" fill="#12A02A" opacity="0.50"></circle><circle cx="480" cy="390" r="3.4" fill="#12A02A" opacity="0.51"></circle><circle cx="780" cy="390" r="3.4" fill="#12A02A" opacity="0.49"></circle><circle cx="800" cy="390" r="3.4" fill="#12A02A" opacity="0.48"></circle><circle cx="820" cy="390" r="3.4" fill="#12A02A" opacity="0.47"></circle><circle cx="840" cy="390" r="3.4" fill="#12A02A" opacity="0.46"></circle><circle cx="140" cy="410" r="3.4" fill="#12A02A" opacity="0.25"></circle><circle cx="240" cy="410" r="3.4" fill="#12A02A" opacity="0.33"></circle><circle cx="260" cy="410" r="3.4" fill="#12A02A" opacity="0.34"></circle><circle cx="400" cy="410" r="3.4" fill="#12A02A" opacity="0.43"></circle><circle cx="420" cy="410" r="3.4" fill="#12A02A" opacity="0.44"></circle><circle cx="440" cy="410" r="3.4" fill="#12A02A" opacity="0.45"></circle><circle cx="460" cy="410" r="3.4" fill="#12A02A" opacity="0.46"></circle><circle cx="480" cy="410" r="3.4" fill="#12A02A" opacity="0.47"></circle><circle cx="500" cy="410" r="3.4" fill="#12A02A" opacity="0.48"></circle><circle cx="600" cy="410" r="3.4" fill="#12A02A" opacity="0.49"></circle><circle cx="620" cy="410" r="3.4" fill="#12A02A" opacity="0.49"></circle><circle cx="760" cy="410" r="3.4" fill="#12A02A" opacity="0.46"></circle><circle cx="780" cy="410" r="3.4" fill="#12A02A" opacity="0.45"></circle><circle cx="800" cy="410" r="3.4" fill="#12A02A" opacity="0.44"></circle><circle cx="820" cy="410" r="3.4" fill="#12A02A" opacity="0.43"></circle><circle cx="840" cy="410" r="3.4" fill="#12A02A" opacity="0.42"></circle><circle cx="860" cy="410" r="3.4" fill="#12A02A" opacity="0.41"></circle><circle cx="960" cy="410" r="3.4" fill="#12A02A" opacity="0.34"></circle><circle cx="980" cy="410" r="3.4" fill="#12A02A" opacity="0.33"></circle><circle cx="220" cy="430" r="3.4" fill="#12A02A" opacity="0.28"></circle><circle cx="240" cy="430" r="3.4" fill="#12A02A" opacity="0.30"></circle><circle cx="260" cy="430" r="3.4" fill="#12A02A" opacity="0.31"></circle><circle cx="280" cy="430" r="3.4" fill="#12A02A" opacity="0.32"></circle><circle cx="300" cy="430" r="3.4" fill="#12A02A" opacity="0.34"></circle><circle cx="380" cy="430" r="3.4" fill="#12A02A" opacity="0.38"></circle><circle cx="400" cy="430" r="3.4" fill="#12A02A" opacity="0.39"></circle><circle cx="420" cy="430" r="3.4" fill="#12A02A" opacity="0.40"></circle><circle cx="440" cy="430" r="3.4" fill="#12A02A" opacity="0.41"></circle><circle cx="460" cy="430" r="3.4" fill="#12A02A" opacity="0.42"></circle><circle cx="480" cy="430" r="3.4" fill="#12A02A" opacity="0.42"></circle><circle cx="500" cy="430" r="3.4" fill="#12A02A" opacity="0.43"></circle><circle cx="520" cy="430" r="3.4" fill="#12A02A" opacity="0.44"></circle><circle cx="580" cy="430" r="3.4" fill="#12A02A" opacity="0.44"></circle><circle cx="600" cy="430" r="3.4" fill="#12A02A" opacity="0.45"></circle><circle cx="620" cy="430" r="3.4" fill="#12A02A" opacity="0.45"></circle><circle cx="640" cy="430" r="3.4" fill="#12A02A" opacity="0.44"></circle><circle cx="660" cy="430" r="3.4" fill="#12A02A" opacity="0.44"></circle><circle cx="740" cy="430" r="3.4" fill="#12A02A" opacity="0.42"></circle><circle cx="760" cy="430" r="3.4" fill="#12A02A" opacity="0.42"></circle><circle cx="780" cy="430" r="3.4" fill="#12A02A" opacity="0.41"></circle><circle cx="800" cy="430" r="3.4" fill="#12A02A" opacity="0.40"></circle><circle cx="820" cy="430" r="3.4" fill="#12A02A" opacity="0.39"></circle><circle cx="840" cy="430" r="3.4" fill="#12A02A" opacity="0.38"></circle><circle cx="860" cy="430" r="3.4" fill="#12A02A" opacity="0.37"></circle><circle cx="880" cy="430" r="3.4" fill="#12A02A" opacity="0.36"></circle><circle cx="940" cy="430" r="3.4" fill="#12A02A" opacity="0.32"></circle><circle cx="960" cy="430" r="3.4" fill="#12A02A" opacity="0.31"></circle><circle cx="980" cy="430" r="3.4" fill="#12A02A" opacity="0.30"></circle><circle cx="1000" cy="430" r="3.4" fill="#12A02A" opacity="0.28"></circle><circle cx="1020" cy="430" r="3.4" fill="#12A02A" opacity="0.27"></circle><circle cx="220" cy="450" r="3.4" fill="#12A02A" opacity="0.25"></circle><circle cx="240" cy="450" r="3.4" fill="#12A02A" opacity="0.26"></circle><circle cx="260" cy="450" r="3.4" fill="#12A02A" opacity="0.28"></circle><circle cx="280" cy="450" r="3.4" fill="#12A02A" opacity="0.29"></circle><circle cx="300" cy="450" r="3.4" fill="#12A02A" opacity="0.30"></circle><circle cx="320" cy="450" r="3.4" fill="#12A02A" opacity="0.31"></circle><circle cx="340" cy="450" r="3.4" fill="#12A02A" opacity="0.32"></circle><circle cx="360" cy="450" r="3.4" fill="#12A02A" opacity="0.33"></circle><circle cx="380" cy="450" r="3.4" fill="#12A02A" opacity="0.34"></circle><circle cx="400" cy="450" r="3.4" fill="#12A02A" opacity="0.35"></circle><circle cx="420" cy="450" r="3.4" fill="#12A02A" opacity="0.36"></circle><circle cx="440" cy="450" r="3.4" fill="#12A02A" opacity="0.37"></circle><circle cx="460" cy="450" r="3.4" fill="#12A02A" opacity="0.37"></circle><circle cx="480" cy="450" r="3.4" fill="#12A02A" opacity="0.38"></circle><circle cx="500" cy="450" r="3.4" fill="#12A02A" opacity="0.39"></circle><circle cx="520" cy="450" r="3.4" fill="#12A02A" opacity="0.39"></circle><circle cx="580" cy="450" r="3.4" fill="#12A02A" opacity="0.40"></circle><circle cx="600" cy="450" r="3.4" fill="#12A02A" opacity="0.40"></circle><circle cx="620" cy="450" r="3.4" fill="#12A02A" opacity="0.40"></circle><circle cx="640" cy="450" r="3.4" fill="#12A02A" opacity="0.40"></circle><circle cx="660" cy="450" r="3.4" fill="#12A02A" opacity="0.40"></circle><circle cx="680" cy="450" r="3.4" fill="#12A02A" opacity="0.39"></circle><circle cx="700" cy="450" r="3.4" fill="#12A02A" opacity="0.39"></circle><circle cx="720" cy="450" r="3.4" fill="#12A02A" opacity="0.39"></circle><circle cx="740" cy="450" r="3.4" fill="#12A02A" opacity="0.38"></circle><circle cx="760" cy="450" r="3.4" fill="#12A02A" opacity="0.37"></circle><circle cx="780" cy="450" r="3.4" fill="#12A02A" opacity="0.37"></circle><circle cx="800" cy="450" r="3.4" fill="#12A02A" opacity="0.36"></circle><circle cx="820" cy="450" r="3.4" fill="#12A02A" opacity="0.35"></circle><circle cx="840" cy="450" r="3.4" fill="#12A02A" opacity="0.34"></circle><circle cx="860" cy="450" r="3.4" fill="#12A02A" opacity="0.33"></circle><circle cx="880" cy="450" r="3.4" fill="#12A02A" opacity="0.32"></circle><circle cx="940" cy="450" r="3.4" fill="#12A02A" opacity="0.29"></circle><circle cx="960" cy="450" r="3.4" fill="#12A02A" opacity="0.28"></circle><circle cx="980" cy="450" r="3.4" fill="#12A02A" opacity="0.26"></circle><circle cx="1000" cy="450" r="3.4" fill="#12A02A" opacity="0.25"></circle><circle cx="280" cy="470" r="3.4" fill="#12A02A" opacity="0.25"></circle><circle cx="300" cy="470" r="3.4" fill="#12A02A" opacity="0.26"></circle><circle cx="320" cy="470" r="3.4" fill="#12A02A" opacity="0.27"></circle><circle cx="340" cy="470" r="3.4" fill="#12A02A" opacity="0.28"></circle><circle cx="360" cy="470" r="3.4" fill="#12A02A" opacity="0.29"></circle><circle cx="380" cy="470" r="3.4" fill="#12A02A" opacity="0.30"></circle><circle cx="400" cy="470" r="3.4" fill="#12A02A" opacity="0.31"></circle><circle cx="420" cy="470" r="3.4" fill="#12A02A" opacity="0.32"></circle><circle cx="440" cy="470" r="3.4" fill="#12A02A" opacity="0.32"></circle><circle cx="460" cy="470" r="3.4" fill="#12A02A" opacity="0.33"></circle><circle cx="480" cy="470" r="3.4" fill="#12A02A" opacity="0.33"></circle><circle cx="500" cy="470" r="3.4" fill="#12A02A" opacity="0.34"></circle><circle cx="600" cy="470" r="3.4" fill="#12A02A" opacity="0.35"></circle><circle cx="620" cy="470" r="3.4" fill="#12A02A" opacity="0.35"></circle><circle cx="640" cy="470" r="3.4" fill="#12A02A" opacity="0.35"></circle><circle cx="660" cy="470" r="3.4" fill="#12A02A" opacity="0.35"></circle><circle cx="680" cy="470" r="3.4" fill="#12A02A" opacity="0.35"></circle><circle cx="700" cy="470" r="3.4" fill="#12A02A" opacity="0.34"></circle><circle cx="720" cy="470" r="3.4" fill="#12A02A" opacity="0.34"></circle><circle cx="740" cy="470" r="3.4" fill="#12A02A" opacity="0.33"></circle><circle cx="760" cy="470" r="3.4" fill="#12A02A" opacity="0.33"></circle><circle cx="780" cy="470" r="3.4" fill="#12A02A" opacity="0.32"></circle><circle cx="800" cy="470" r="3.4" fill="#12A02A" opacity="0.32"></circle><circle cx="820" cy="470" r="3.4" fill="#12A02A" opacity="0.31"></circle><circle cx="840" cy="470" r="3.4" fill="#12A02A" opacity="0.30"></circle><circle cx="860" cy="470" r="3.4" fill="#12A02A" opacity="0.29"></circle><circle cx="380" cy="490" r="3.4" fill="#12A02A" opacity="0.26"></circle><circle cx="400" cy="490" r="3.4" fill="#12A02A" opacity="0.26"></circle><circle cx="420" cy="490" r="3.4" fill="#12A02A" opacity="0.27"></circle><circle cx="440" cy="490" r="3.4" fill="#12A02A" opacity="0.28"></circle><circle cx="460" cy="490" r="3.4" fill="#12A02A" opacity="0.28"></circle><circle cx="480" cy="490" r="3.4" fill="#12A02A" opacity="0.29"></circle><circle cx="620" cy="490" r="3.4" fill="#12A02A" opacity="0.30"></circle><circle cx="640" cy="490" r="3.4" fill="#12A02A" opacity="0.30"></circle><circle cx="660" cy="490" r="3.4" fill="#12A02A" opacity="0.30"></circle><circle cx="740" cy="490" r="3.4" fill="#12A02A" opacity="0.29"></circle><circle cx="760" cy="490" r="3.4" fill="#12A02A" opacity="0.28"></circle><circle cx="780" cy="490" r="3.4" fill="#12A02A" opacity="0.28"></circle><circle cx="800" cy="490" r="3.4" fill="#12A02A" opacity="0.27"></circle><circle cx="820" cy="490" r="3.4" fill="#12A02A" opacity="0.26"></circle><circle cx="840" cy="490" r="3.4" fill="#12A02A" opacity="0.26"></circle><circle cx="640" cy="510" r="3.4" fill="#12A02A" opacity="0.26"></circle></svg>